# AST/ASF file generated using VICON BodyLanguage
# -----------------------------------------------
:version 1.10
:name VICON
:units
  mass 1.0
  length 0.45
  angle deg
:documentation
   .ast/.asf automatically generated from VICON data using
   VICON BodyBuilder and BodyLanguage model FoxedUp or BRILLIANT.MOD
:root
   order TX TY TZ RX RY RZ
   axis XYZ
   position 0 0 0  
   orientation 0 0 0 
:bonedata
  begin
     id 1 
     name lhipjoint
     direction 0.655637 -0.713449 0.247245 
     length 2.52691 
     axis 0 0 0  XYZ
  end
  begin
     id 2 
     name lfemur
     direction 0.34202 -0.939693 0  
     length 7.59371  
     axis 0 0 20  XYZ
    dof rx ry rz
    limits (-160.0 20.0)
           (-70.0 70.0)
           (-60.0 70.0)
  end
  begin
     id 3 
     name ltibia
     direction 0.34202 -0.939693 0   
     length 7.28717   
     axis 0 0 20   XYZ
    dof rx
    limits (-10.0 170.0)
  end
  begin
     id 4 
     name lfoot
     direction 0.0886837 -0.243657 0.965798   
     length 2.2218   
     axis -90 7.62852e-016 20   XYZ
    dof rx rz
    limits (-45.0 90.0)
           (-70.0 20.0)
  end
  begin
     id 5 
     name ltoes
     direction 1.53547e-011 -4.22004e-011 1   
     length 1.11249   
     axis -90 7.62852e-016 20   XYZ
    dof rx
    limits (-90.0 20.0)
  end
  begin
     id 6 
     name rhipjoint
     direction -0.645062 -0.722004 0.250209   
     length 2.49697  
     axis 0 0 0  XYZ 
  end
  begin
     id 7 
     name rfemur
     direction -0.34202 -0.939693 0   
     length 7.58734   
     axis 0 0 -20   XYZ
    dof rx ry rz
    limits (-160.0 20.0)
           (-70.0 70.0)
           (-70.0 60.0)
  end
  begin
     id 8 
     name rtibia
     direction -0.34202 -0.939693 0   
     length 7.21538   
     axis 0 0 -20   XYZ
    dof rx
    limits (-10.0 170.0)
 end
 begin
     id 9 
     name rfoot
     direction -0.102907 -0.282735 0.953662   
     length 2.23735  
     axis -90 -7.62852e-016 -20   XYZ
    dof rx rz
    limits (-45.0 90.0)
           (-20.0 70.0)
  end
  begin
     id 10 
     name rtoes
     direction -1.5354e-011 -4.21751e-011 1   
     length 1.11569   
     axis -90 -7.62852e-016 -20   XYZ
    dof rx
    limits (-90.0 20.0)
  end
  begin
     id 11 
     name lowerback
     direction 0.00952301 0.997604 -0.0685217   
     length 2.05943   
     axis 0 0 0   XYZ
    dof rx ry rz
    limits (-20.0 45.0)
           (-30.0 30.0)
           (-30.0 30.0)
  end
  begin
     id 12 
     name upperback
     direction 0.00494399 0.999577 -0.0286701   
     length 2.06523   
     axis 0 0 0   XYZ
    dof rx ry rz
    limits (-20.0 45.0)
           (-30.0 30.0)
           (-30.0 30.0)
  end
  begin
     id 13 
     name thorax
     direction 0.000729686 0.999992 0.00388603   
     length 2.06807   
     axis 0 0 0   XYZ
    dof rx ry rz
    limits (-20.0 45.0)
           (-30.0 30.0)
           (-30.0 30.0)
  end
  begin
     id 14 
     name lowerneck
     direction 0.00452882 0.995459 0.0950816   
     length 1.57426   
     axis 0 0 0   XYZ
    dof rx ry rz
    limits (-20.0 45.0)
           (-30.0 30.0)
           (-30.0 30.0)
  end
  begin
     id 15 
     name upperneck
     direction 0.021922 0.997711 -0.0639762   
     length 1.56399   
     axis 0 0 0   XYZ
    dof rx ry rz
    limits (-20.0 45.0)
           (-30.0 30.0)
           (-30.0 30.0)
  end
  begin
     id 16
     name head
     direction 0.008024 0.999444 -0.0323691  
     length 1.6265  
     axis 0 0 0   XYZ
    dof rx ry rz
    limits (-20.0 45.0)
           (-30.0 30.0)
           (-30.0 30.0)
  end
  begin
     id 17 
     name lclavicle
     direction 0.967826 0.247107 -0.0474446  
     length 3.6598  
     axis 0 0 0   XYZ
    dof ry rz
    limits (-20.0 10.0)
           (0.0 20.0)
  end
  begin
     id 18 
     name lhumerus
     direction 1 -4.48971e-011 -2.90544e-027   
     length 4.86513   
     axis 180 -30 -90   XYZ
    dof rx ry rz
    limits (-60.0 90.0)
           (-90.0 90.0)
           (-90.0 90.0)
  end
  begin
     id 19
     name lradius
     direction 1 -4.48958e-011 1.79638e-026   
     length 3.35554   
     axis 180 -30 -90   XYZ
    dof rx
    limits (-10.0 170.0)
  end
  begin
     id 20
     name lwrist
     direction 1 -4.48952e-011 3.34345e-026   
     length 1.67777   
     axis -2.22354e-014 90 90   XYZ
    dof ry
    limits (-180.0 0.0)
 end
  begin
     id 21 
     name lhand
     direction 1 -4.49055e-011 6.6869e-026   
     length 0.661175   
     axis -4.26681e-014 90 90   XYZ
    dof rx rz
    limits (-90.0 90.0)
           (-45.0 45.0)
  end
  begin
     id 22 
     name lfingers
     direction 1 -4.48731e-011 1.33738e-025   
     length 0.533057   
     axis -8.53362e-014 90 90   XYZ
    dof rx
    limits (0.0 90.0)
  end
  begin
     id 23
     name lthumb
     direction 0.707107 -6.35005e-011 0.707107   
     length 0.765366   
     axis -90 45 2.85299e-015   XYZ
    dof rx rz
    limits (-45.0 45.0)
           (-45.0 45.0)
  end
  begin
     id 24 
     name rclavicle
     direction -0.973174 0.211421 -0.0907389   
     length 3.59444  
     axis 0 0 0   XYZ 
    dof ry rz
    limits (-10.0 20.0)
           (-20.0 0.0)
  end
  begin
     id 25 
     name rhumerus
     direction -1 -4.48964e-011 1.56311e-027  
     length 5.02649   
     axis 180 30 90   XYZ
    dof rx ry rz
    limits (-90.0 60.0)
           (-90.0 90.0)
           (-90.0 90.0)
  end
  begin
     id 26 
     name rradius
     direction -1 -4.48948e-011 2.01724e-026   
     length 3.36431   
     axis 180 30 90   XYZ
    dof rx
    limits (-10.0 170.0)
  end
  begin
     id 27 
     name rwrist
     direction -1 -4.49008e-011 3.34345e-026   
     length 1.68216   
     axis -2.22354e-014 -90 -90   XYZ
    dof ry
    limits (-180.0 0.0)
  end
  begin
     id 28
     name rhand
     direction -1 -4.49013e-011 6.6869e-026   
     length 0.730406   
     axis -4.26681e-014 -90 -90   XYZ
    dof rx rz
    limits (-90.0 90.0)
           (-45.0 45.0)
  end
  begin
     id 29
     name rfingers
     direction -1 -4.48867e-011 1.33738e-025   
     length 0.588872   
     axis -8.53362e-014 -90 -90   XYZ
    dof rx
    limits (0.0 90.0)
  end
  begin
     id 30
     name rthumb
     direction -0.707107 -6.34907e-011 0.707107   
     length 0.845506   
     axis -90 -45 -2.85299e-015   XYZ
    dof rx rz
    limits (-45.0 45.0)
           (-45.0 45.0)
  end
:hierarchy
  begin
    root lhipjoint rhipjoint lowerback
    lhipjoint lfemur
    lfemur ltibia
    ltibia lfoot
    lfoot ltoes
    rhipjoint rfemur
    rfemur rtibia
    rtibia rfoot
    rfoot rtoes
    lowerback upperback
    upperback thorax
    thorax lowerneck lclavicle rclavicle
    lowerneck upperneck
    upperneck head
    lclavicle lhumerus
    lhumerus lradius
    lradius lwrist
    lwrist lhand lthumb
    lhand lfingers
    rclavicle rhumerus
    rhumerus rradius
    rradius rwrist
    rwrist rhand rthumb
    rhand rfingers
  end

#!OML:ASF H:\Terrain\Patient Classification 1\Takeo\Monday\TakeoMonday.ASF
:FULLY-SPECIFIED
:DEGREES
98
root 9.60014 15.4776 -0.902915 11.4611 3.42258 -1.17686
lowerback 27.0736 -1.33271 1.80208
upperback 6.47396 -1.13178 0.683466
thorax -7.78527 -0.553299 0.089919
lowerneck -14.7433 -0.402648 -2.07872
upperneck -16.9377 -0.327096 -0.383873
head -3.03453 -0.0303151 0.218368
rclavicle -9.82742e-015 -5.29264e-015
rhumerus 13.1279 19.4501 -75.4581
rradius 62.1071
rwrist -14.92
rhand -36.3741 35.3848
rfingers 7.12502
rthumb -9.47082 5.61757
lclavicle -9.82742e-015 -5.29264e-015
lhumerus 19.9898 -27.1676 44.2431
lradius 71.8681
lwrist 31.5137
lhand -33.165 20.7768
lfingers 7.12502
lthumb -6.37348 50.6609
rfemur -48.8523 -0.453692 24.2888
rtibia 75.68
rfoot -25.5122 -9.51117
rtoes -2.61674
lfemur -48.5478 -2.11389 -22.9238
ltibia 75.4673
lfoot -25.6413 10.7863
ltoes -7.8332
99
root 9.60748 15.7157 -0.841121 10.8112 3.10507 -1.33693
lowerback 26.7059 -1.15259 1.64225
upperback 6.02354 -0.953234 0.672799
thorax -8.10181 -0.470815 0.111391
lowerneck -14.6334 -0.459005 -2.03898
upperneck -16.2703 -0.406351 -0.40439
head -2.81504 -0.0784537 0.202838
rclavicle 1.55797e-014 -1.58282e-014
rhumerus 14.4125 20.4259 -73.2994
rradius 65.506
rwrist -16.0382
rhand -37.2984 35.443
rfingers 7.12502
rthumb -10.3625 5.7183
lclavicle 1.55797e-014 -1.58282e-014
lhumerus 22.2495 -26.6476 41.0039
lradius 73.4522
lwrist 30.8695
lhand -32.3715 21.7692
lfingers 7.12502
lthumb -5.60743 51.675
rfemur -46.7153 -0.854538 24.4025
rtibia 72.9796
rfoot -23.9638 -8.8186
rtoes -4.66646
lfemur -46.2277 -1.64596 -22.8227
ltibia 72.7601
lfoot -24.2264 10.7036
ltoes -7.68603
100
root 9.62414 15.9755 -0.76103 10.0223 2.74377 -1.3899
lowerback 26.4403 -1.01509 1.39949
upperback 5.5317 -0.845991 0.672158
thorax -8.51477 -0.419462 0.217254
lowerneck -14.2825 -0.423672 -2.05379
upperneck -15.5819 -0.367636 -0.490574
head -2.63066 -0.0632582 0.178012
rclavicle 1.16786e-014 1.2424e-015
rhumerus 15.4913 21.7521 -70.9305
rradius 68.4939
rwrist -17.843
rhand -38.0531 35.7491
rfingers 7.12502
rthumb -11.0905 6.06214
lclavicle 1.16786e-014 1.2424e-015
lhumerus 23.6116 -26.0629 38.5628
lradius 74.7215
lwrist 30.0474
lhand -31.9148 21.3161
lfingers 7.12502
lthumb -5.16647 51.2331
rfemur -44.124 -1.34338 24.3262
rtibia 69.9104
rfoot -22.2209 -7.97577
rtoes -5.73387
lfemur -43.4471 -1.28606 -22.7915
ltibia 69.7422
lfoot -23.1924 10.0683
ltoes -4.83269
101
root 9.64476 16.2445 -0.665069 8.98792 2.29503 -1.60921
lowerback 26.3885 -0.901343 1.39671
upperback 4.99042 -0.701829 0.646515
thorax -9.09543 -0.356067 0.148345
lowerneck -13.3181 -0.268606 -1.82314
upperneck -15.04 -0.240274 -0.889054
head -2.59799 -0.00835992 0.0151319
rclavicle 6.75868e-015 -1.12313e-014
rhumerus 16.1913 23.0984 -68.683
rradius 71.0141
rwrist -19.7983
rhand -38.4088 36.6201
rfingers 7.12502
rthumb -11.4335 6.95188
lclavicle 6.75868e-015 -1.12313e-014
lhumerus 24.3734 -25.8761 36.5674
lradius 75.8152
lwrist 30.0515
lhand -31.5084 19.8096
lfingers 7.12502
lthumb -4.77409 49.7358
rfemur -40.9658 -1.78561 24.3611
rtibia 66.459
rfoot -20.159 -6.98641
rtoes -6.53366
lfemur -40.1933 -0.850571 -22.5779
ltibia 66.4066
lfoot -21.9118 9.61918
ltoes -2.63602
102
root 9.66671 16.5327 -0.554298 8.00054 1.83391 -1.65284
lowerback 26.0878 -0.751102 1.45817
upperback 4.57088 -0.514282 0.47876
thorax -9.41401 -0.27577 -0.135399
lowerneck -12.8579 -0.204463 -1.52753
upperneck -14.0799 -0.21366 -1.25177
head -2.34374 -0.0120278 -0.147968
rclavicle 5.26779e-015 -4.47266e-016
rhumerus 16.8269 23.9656 -66.7122
rradius 72.9024
rwrist -20.973
rhand -38.5352 37.7547
rfingers 7.12502
rthumb -11.5555 8.09323
lclavicle 5.26779e-015 -4.47266e-016
lhumerus 25.141 -25.9777 34.7927
lradius 76.5773
lwrist 29.9868
lhand -31.4106 18.6985
lfingers 7.12502
lthumb -4.67963 48.6268
rfemur -37.6165 -2.281 24.1623
rtibia 62.6662
rfoot -17.8187 -5.81217
rtoes -8.05689
lfemur -36.7457 -0.441358 -22.5691
ltibia 62.7047
lfoot -20.0466 9.59635
ltoes -2.69542
